<?xml version="1.0" encoding="utf-8"?>
<!-- Generator: Adobe Illustrator 28.0.0, SVG Export Plug-In . SVG Version: 6.00 Build 0)  -->
<svg version="1.1" id="Livello_1" xmlns="http://www.w3.org/2000/svg" xmlns:xlink="http://www.w3.org/1999/xlink" x="0px" y="0px"
	 width="230px" height="170px" viewBox="0 0 230 170" style="enable-background:new 0 0 230 170;" xml:space="preserve">
<style type="text/css">
	.st0{fill:#1D1D1B;}
</style>
<g>
	<path class="st0" d="M148.7,169.9c-8.2,0-20.2-3.2-27.1-10.1c-10.8-10.9-12.8-27.4-6-40.4H34c-18.8,0-34.1-15.5-34.1-34.5
		c0-19,15.3-34.5,34.1-34.5h81.5c-6.8-13-4.7-29.5,6-40.4c6.5-6.5,15-10.1,24.2-10.1c0,0,0,0,0,0c9.1,0,17.7,3.6,24.2,10.1l50,50.5
		c13.3,13.4,13.3,35.3,0,48.7l-50,50.5C163.7,166,158,169.9,148.7,169.9z M34,59.9c-13.6,0-24.7,11.2-24.7,25
		c0,13.8,11.1,25,24.7,25h101.9l-7.8,8c-9.5,9.8-9.4,25.5,0.2,35.2c4.7,4.7,14,7.3,20.4,7.3c5.6,0,8.9-1.7,14.5-7.3l50-50.5
		c9.6-9.8,9.6-25.6,0-35.4v0l-50-50.5c-4.7-4.7-10.8-7.3-17.4-7.3c-6.6,0-12.8,2.6-17.4,7.3c-9.6,9.7-9.6,25.4-0.2,35.2l7.8,8H34z"
		/>
</g>
</svg>
